<svg id="Layer_1" data-name="Layer 1" xmlns="http://www.w3.org/2000/svg" viewBox="0 0 512 512"><defs><style>.cls-1{fill:#fff;}.cls-2{fill:#2a6699;}.cls-3{fill:#e34441;}.cls-4{fill:#4fb552;}.cls-5{fill:#f9d045;}</style></defs><title>icons</title><ellipse id="circle47" class="cls-1" cx="256.55" cy="256.88" rx="226.48" ry="226.4"/><ellipse id="circle53" class="cls-2" cx="256.55" cy="256.87" rx="84.41" ry="84.38"/><path id="path55" class="cls-3" d="M462.44,154C405.76,40,267.36-6.52,153.31,50.14a230.54,230.54,0,0,0-88.23,77.07l92.65,160.54A102.92,102.92,0,0,1,254.5,154"/><path id="path57" class="cls-4" d="M65.08,127.21C-5.83,233,22.43,376.15,128.22,447A230.65,230.65,0,0,0,238,485.33l96.77-164.65a103,103,0,0,1-177.06-32.93"/><path id="path59" class="cls-5" d="M238,485.33c127,9.6,237.72-85.53,247.32-212.48A230.43,230.43,0,0,0,462.44,154H254.5a102.9,102.9,0,0,1,80.29,166.71"/></svg>