<svg id="Layer_1" data-name="Layer 1" xmlns="http://www.w3.org/2000/svg" viewBox="0 0 512 512"><defs><style>.cls-1{fill:#2e1912;}.cls-2{fill:#f48942;}</style></defs><title>icons</title><circle id="_Path_" data-name="&lt;Path&gt;" class="cls-1" cx="256" cy="256" r="230"/><circle id="_Path_2" data-name="&lt;Path&gt;" class="cls-1" cx="256" cy="256" r="218"/><path class="cls-2" d="M187.89,279.47l-20.16,61.05H141.81l66-194.11H238l66.24,194.11H277.45l-20.74-61.05H187.89Zm63.65-19.58-19-55.87c-4.32-12.67-7.2-24.19-10.08-35.42h-0.58c-2.88,11.52-6,23.33-9.79,35.13l-19,56.16h58.46Z"/><path class="cls-2" d="M359.25,162c0.29,8.64-6,15.55-16.13,15.55-8.93,0-15.26-6.91-15.26-15.55a15.44,15.44,0,0,1,15.84-15.84C353.2,146.13,359.25,153,359.25,162ZM331,340.53V201.14h25.34V340.53H331Z"/></svg>