<svg id="Layer_1" data-name="Layer 1" xmlns="http://www.w3.org/2000/svg" viewBox="0 0 512 512"><defs><style>.cls-1{fill:#18162f;}.cls-2{fill:#57c9ec;}</style></defs><title>icons</title><circle id="_Path_" data-name="&lt;Path&gt;" class="cls-1" cx="256" cy="256" r="230"/><circle id="_Path_2" data-name="&lt;Path&gt;" class="cls-1" cx="256" cy="256" r="218"/><path class="cls-2" d="M147.42,148.72A290.32,290.32,0,0,1,195.52,145c24.77,0,42.91,5.76,54.43,16.13,10.66,9.22,17,23.33,17,40.61,0,17.57-5.18,31.39-15,41.47-13.25,14.11-34.85,21.31-59.33,21.31-7.49,0-14.4-.29-20.16-1.73v77.76H147.42V148.72Zm25.06,93.6c5.47,1.44,12.38,2,20.74,2,30.24,0,48.67-14.69,48.67-41.47,0-25.63-18.14-38-45.79-38-10.94,0-19.3.86-23.62,2v75.45Z"/><path class="cls-2" d="M290,314.61c7.49,4.9,20.74,10.08,33.41,10.08,18.43,0,27.07-9.22,27.07-20.74,0-12.1-7.2-18.72-25.92-25.63-25.06-8.93-36.86-22.75-36.86-39.46,0-22.46,18.14-40.89,48.09-40.89,14.11,0,26.5,4,34.27,8.64L363.71,225A54.25,54.25,0,0,0,335.2,217c-15,0-23.33,8.64-23.33,19,0,11.52,8.35,16.7,26.5,23.62,24.19,9.22,36.58,21.31,36.58,42,0,24.48-19,41.76-52.13,41.76-15.26,0-29.38-3.74-39.17-9.5Z"/></svg>