<svg id="Layer_1" data-name="Layer 1" xmlns="http://www.w3.org/2000/svg" viewBox="0 0 512 512"><defs><style>.cls-1{fill:#f7f6f5;}.cls-2{fill:#e0a451;}.cls-3{fill:#76c5c9;}.cls-4{fill:#657e41;}.cls-5{fill:#cb2561;}.cls-6{fill:#b32231;}.cls-7{fill:#45a98e;}.cls-8{fill:#298b75;}.cls-9{fill:#432344;}</style></defs><title>icons</title><circle id="_Path_" data-name="&lt;Path&gt;" class="cls-1" cx="256" cy="256" r="230"/><g id="_Group_" data-name="&lt;Group&gt;"><path id="_Path_2" data-name="&lt;Path&gt;" class="cls-2" d="M385.32,320.88l98.54-33.5A231.92,231.92,0,0,0,486,256,229.25,229.25,0,0,0,417.47,92.24l-96.72,33.36Z"/><path id="_Path_3" data-name="&lt;Path&gt;" class="cls-3" d="M320.75,125.59L288.58,28.31q2.57,0.36,5.12.79A230.17,230.17,0,0,0,89.85,97l33.09,96.84Z"/><path id="_Path_4" data-name="&lt;Path&gt;" class="cls-4" d="M320.75,125.59l96.72-33.36-0.68-.67q-1.33-1.3-2.69-2.59l-1.24-1.17q-1.31-1.22-2.63-2.42l-1.34-1.21q-1.3-1.16-2.62-2.29l-1.42-1.22q-1.3-1.11-2.63-2.19l-1.48-1.22c-0.88-.71-1.77-1.41-2.66-2.11L396.56,74c-0.9-.7-1.81-1.38-2.73-2.07l-1.52-1.14c-1-.72-2-1.43-3-2.14l-1.35-1q-2.1-1.47-4.23-2.9c-0.77-.51-1.55-1-2.32-1.52l-2.06-1.34c-0.85-.54-1.72-1.07-2.58-1.61L375,59.13c-0.91-.55-1.82-1.09-2.74-1.62l-1.75-1c-1-.55-1.92-1.09-2.88-1.62l-1.66-.92q-1.5-.82-3-1.61l-1.57-.82q-1.58-.81-3.17-1.6l-1.44-.71q-1.67-.82-3.36-1.61L352.13,47q-1.79-.83-3.6-1.63l-1-.41c-1.31-.57-2.63-1.13-4-1.68l-0.43-.18a228.27,228.27,0,0,0-39-12.05L304,31q-2.47-.53-5-1l-0.22,0q-2.49-.47-5-0.88l-0.17,0q-2.55-.42-5.12-0.79Z"/><path id="_Path_5" data-name="&lt;Path&gt;" class="cls-5" d="M189.13,387.58l32.76,95.9c-1.52-.23-3-0.47-4.56-0.73a230.19,230.19,0,0,0,200.54-63.4l-32.56-98.48Z"/><path id="_Path_6" data-name="&lt;Path&gt;" class="cls-6" d="M424.72,412.28l1-1q1.8-2,3.55-4l0.56-.65q1.45-1.67,2.87-3.37c0.47-.56.93-1.14,1.4-1.71,0.65-.79,1.3-1.59,1.94-2.39s1-1.33,1.57-2,1.12-1.44,1.67-2.16,1.09-1.45,1.63-2.18l1.5-2q0.84-1.16,1.66-2.33l1.37-2q0.85-1.23,1.68-2.46l1.24-1.87q0.86-1.31,1.7-2.62l1.09-1.73c0.58-.93,1.17-1.87,1.74-2.81l0.9-1.51c0.61-1,1.23-2.06,1.83-3.11l0.55-1a229.13,229.13,0,0,0,10.77-21.53l0.27-.61q0.87-2,1.7-4l0.34-.83q0.81-2,1.58-4l0.34-.88q0.77-2,1.5-4.08l0.29-.8q0.75-2.11,1.45-4.24l0.2-.6q0.74-2.25,1.43-4.52l0.05-.17a228.73,228.73,0,0,0,7.81-35.68h0l-98.54,33.5,32.56,98.48,0.4-.4c0.85-.84,1.68-1.7,2.52-2.55l1.24-1.27C422.95,414.19,423.84,413.23,424.72,412.28Z"/><path id="_Path_7" data-name="&lt;Path&gt;" class="cls-7" d="M122.93,193.82L27.87,226.6A232.13,232.13,0,0,0,26,256,229.26,229.26,0,0,0,94.52,419.75l94.62-32.17Z"/><path id="_Path_8" data-name="&lt;Path&gt;" class="cls-8" d="M89.85,97l-0.29.3q-1.37,1.44-2.72,2.9l-0.87.94q-1.42,1.56-2.81,3.14l-0.69.78q-1.52,1.74-3,3.52l-0.41.48q-6.81,8.19-12.87,17l-0.27.4q-1.34,2-2.65,4l-0.63,1c-0.74,1.14-1.47,2.29-2.19,3.45l-0.79,1.3c-0.65,1.06-1.29,2.12-1.93,3.2l-0.87,1.5c-0.59,1-1.18,2-1.75,3.06l-0.91,1.65q-0.81,1.48-1.61,3l-0.92,1.77q-0.75,1.45-1.49,2.92l-0.92,1.86q-0.7,1.44-1.39,2.89L47,159.91q-0.66,1.43-1.3,2.87l-0.88,2q-0.62,1.43-1.21,2.87-0.43,1-.85,2.07-0.58,1.43-1.13,2.86c-0.27.7-.55,1.41-0.82,2.12-0.36,1-.71,1.92-1.06,2.88-0.26.72-.52,1.43-0.77,2.15-0.34,1-.67,1.93-1,2.9-0.24.73-.49,1.45-0.73,2.18-0.32,1-.62,2-0.92,2.94-0.23.73-.46,1.46-0.68,2.19-0.3,1-.58,2-0.86,3-0.21.73-.42,1.45-0.62,2.18-0.28,1-.55,2.07-0.82,3.11-0.18.7-.37,1.4-0.55,2.11-0.28,1.13-.54,2.27-0.81,3.4-0.14.62-.3,1.24-0.44,1.86q-0.59,2.62-1.11,5.26c-0.11.54-.2,1.08-0.3,1.62-0.24,1.24-.48,2.48-0.69,3.72-0.13.77-.25,1.54-0.38,2.31-0.17,1-.34,2-0.49,3.07-0.13.84-.23,1.68-0.35,2.51s-0.23,1.65-.34,2.48l95.06-32.79Z"/><path id="_Path_9" data-name="&lt;Path&gt;" class="cls-9" d="M189.13,387.58L94.52,419.75,94.8,420q1.63,1.6,3.28,3.16l0.6,0.57q1.71,1.6,3.44,3.16l0.5,0.45q1.87,1.67,3.77,3.3l0.25,0.21q8.23,7,17.12,13.3l0.66,0.46q1.82,1.27,3.67,2.52l1.18,0.78q1.6,1.06,3.22,2.1L134,451q1.5,0.94,3,1.86l1.66,1,2.88,1.68,1.81,1,2.79,1.54,1.93,1,2.73,1.42,2,1,2.67,1.31,2.14,1c0.87,0.41,1.75.81,2.62,1.21l2.24,1c0.82,0.36,1.64.71,2.47,1.07q3.1,1.34,6.25,2.59l0.88,0.35c1.05,0.41,2.11.81,3.17,1.2l1.78,0.67c1,0.38,2.1.75,3.15,1.12l1.85,0.65c1.06,0.36,2.12.7,3.19,1l1.86,0.6c1.08,0.34,2.16.66,3.24,1l1.84,0.54,3.32,0.93,1.79,0.48,3.42,0.87,1.7,0.41q1.77,0.42,3.55.82l1.57,0.34c1.24,0.27,2.49.53,3.74,0.78l1.32,0.25c1.34,0.26,2.68.51,4,.74l0.74,0.12c1.51,0.26,3,.5,4.56.73Z"/></g></svg>