<svg id="Layer_1" data-name="Layer 1" xmlns="http://www.w3.org/2000/svg" viewBox="0 0 512 512"><defs><style>.cls-1{fill:#b4d143;}.cls-2{fill:#050606;}</style></defs><title>icons</title><circle id="_Path_" data-name="&lt;Path&gt;" class="cls-1" cx="256" cy="256" r="230"/><g id="_Group_" data-name="&lt;Group&gt;"><path id="_Path_2" data-name="&lt;Path&gt;" class="cls-2" d="M379.93,269.41C336.24,243.07,276.45,226,211.2,226c-34,0-65.15,4.88-91.66,12.67-8.9,2.43-13.68,8.32-14.95,15.65-0.07.8-.12,1.62-0.12,2.47a18.41,18.41,0,0,0,18.37,18.44c4.29,0,6.86-1.36,11.44-2.62A297.45,297.45,0,0,1,211,262.75c58,0,111.06,15.08,149.31,37.78,3.47,2,6.68,4.08,11.78,4.08a18.29,18.29,0,0,0,18.33-18.41c0-.59,0-1.17,0-1.74C388.91,276.12,386.09,273.2,379.93,269.41Z"/><path id="_Path_3" data-name="&lt;Path&gt;" class="cls-2" d="M353.27,339c-37.65-23-84.18-36.34-138.13-36.34-34.31,0-63.75,5-87.69,10.18a15.71,15.71,0,0,0-13,12,22.76,22.76,0,0,0-.18,2.77,14.68,14.68,0,0,0,14.88,14.77c2.89,0,7.74-1.49,11.59-2.32,23.68-4.93,49-8.16,74.16-8.16,45.1,0,87.58,10.84,121.66,31.46,3.56,2.16,6.15,3.48,10,3.48a14.66,14.66,0,0,0,14.63-14.71c0-.81,0-1.55-0.1-2.27A15.59,15.59,0,0,0,353.27,339Z"/><path id="_Path_4" data-name="&lt;Path&gt;" class="cls-2" d="M410.44,190c-52-30-123-44.81-193.69-44.81-42.51,0-78.48,4.78-112,14.52-8.41,2.42-14.6,9.33-16.13,19.12,0,0.54-.06,1.08-0.06,1.64a22,22,0,0,0,22.17,22.46c4.32,0,8.64-1.71,12.06-2.57,29.66-8,62-11.29,93.93-11.29,63.87,0,129.92,14.05,172.48,39.57,4.49,2.46,7.33,3.62,12.12,3.62a21.92,21.92,0,0,0,22.18-22c0-1.14-.06-2.21-0.16-3.25C421.8,199.58,418.24,194.22,410.44,190Z"/></g></svg>