<svg id="Layer_1" data-name="Layer 1" xmlns="http://www.w3.org/2000/svg" viewBox="0 0 512 512"><defs><style>.cls-1{fill:#fff;}.cls-2{fill:#1a3e69;}</style></defs><title>icons</title><circle id="_Path_" data-name="&lt;Path&gt;" class="cls-1" cx="256" cy="256" r="230"/><g id="_Group_" data-name="&lt;Group&gt;"><path id="_Path_2" data-name="&lt;Path&gt;" class="cls-2" d="M256,26C142.84,26,48.78,107.71,29.58,215.35L194.4,283.5a56.16,56.16,0,0,1,9.32-4.92,54.9,54.9,0,0,1,23.34-4.14l48.77-70.7c0-.33,0-0.66,0-1a75.68,75.68,0,1,1,75.68,75.69c-0.57,0-1.13,0-1.7,0L280,328.22a54.72,54.72,0,0,1-4.25,22.69,55.22,55.22,0,0,1-104.9-9.22L27.52,282.42C40.63,397,137.91,486,256,486c127,0,230-103,230-230S383,26,256,26Z"/><path id="_Path_3" data-name="&lt;Path&gt;" class="cls-2" d="M223.12,360.73a31.11,31.11,0,0,1-12-2.41L186.4,348.1a42.63,42.63,0,1,0,23.34-58.28l25.46,10.55A31.38,31.38,0,0,1,223.12,360.73Z"/><path id="_Compound_Path_" data-name="&lt;Compound Path&gt;" class="cls-2" d="M401.92,202.76a50.43,50.43,0,1,0-50.43,50.43A50.48,50.48,0,0,0,401.92,202.76Zm-88.22-.09a37.88,37.88,0,1,1,37.86,37.89A37.87,37.87,0,0,1,313.71,202.66Z"/></g></svg>