<svg id="Layer_1" data-name="Layer 1" xmlns="http://www.w3.org/2000/svg" viewBox="0 0 512 512"><defs><style>.cls-1{fill:#b3ddec;}.cls-2{fill:#99bdc9;}.cls-3{fill:#66737c;}.cls-4{fill:#fcce53;}</style></defs><title>icons</title><circle id="_Path_" data-name="&lt;Path&gt;" class="cls-1" cx="256" cy="256" r="230"/><polygon id="_Path_2" data-name="&lt;Path&gt;" class="cls-2" points="149.17 129.67 166.5 214.67 256 234.33 345.84 214.67 363.84 129.67 149.17 129.67"/><path id="_Compound_Path_" data-name="&lt;Compound Path&gt;" class="cls-3" d="M372.5,125v-7.81a8.22,8.22,0,0,0-1.8-5.13h0A8.22,8.22,0,0,0,365,109l-70.86-6.13a434.36,434.36,0,0,0-74.59,0l-72.29,6.2a8.47,8.47,0,0,0-5.27,2.45h0a8.47,8.47,0,0,0-2.48,6v5.55a15.56,15.56,0,0,0,7.72,13.44l0.28,0.16,13,65L158,205a14,14,0,0,0-2.76,7.45l-1.06,15.86-10,17.33,41.33,84.67v58L222.78,404a21.86,21.86,0,0,0,8.45,1.7H283a21.86,21.86,0,0,0,8.57-1.75l36.56-15.58V328l42-84-11-17.67-0.7-12.67a14,14,0,0,0-4.07-9.1L351.83,202l14.33-65.33L368,135A13.37,13.37,0,0,0,372.5,125ZM167.17,205.67l-13-67.67,50.8,4,7.2,72.67Zm125.67,9H220.17l-6-72.67H299.5ZM345.5,207l-43.83,7.67L308.42,142l51.75-4Z"/><polygon id="_Path_3" data-name="&lt;Path&gt;" class="cls-4" points="206.5 264.25 144 245.67 185.33 330.33 225.75 342.5 286.25 342.5 328 328 370 244 306.5 264.5 206.5 264.25"/></svg>