<svg id="Layer_1" data-name="Layer 1" xmlns="http://www.w3.org/2000/svg" viewBox="0 0 512 512"><defs><style>.cls-1{fill:#63aadb;}.cls-2{fill:#050606;}</style></defs><title>icons</title><circle id="_Path_" data-name="&lt;Path&gt;" class="cls-1" cx="256" cy="256" r="230"/><g id="layer1"><path id="path5" class="cls-2" d="M413.54,158.28a129.22,129.22,0,0,1-37.13,10.18,64.83,64.83,0,0,0,28.42-35.76,129.4,129.4,0,0,1-41,15.69,64.7,64.7,0,0,0-110.15,59A183.51,183.51,0,0,1,120.4,139.81a64.71,64.71,0,0,0,20,86.3A64.38,64.38,0,0,1,111.12,218c0,0.27,0,.54,0,0.81A64.69,64.69,0,0,0,163,282.22a64.79,64.79,0,0,1-29.19,1.11,64.7,64.7,0,0,0,60.39,44.89,129.69,129.69,0,0,1-80.28,27.67,131.46,131.46,0,0,1-15.42-.9,183,183,0,0,0,99.09,29c118.9,0,183.92-98.5,183.92-183.92q0-4.2-.19-8.36a131.32,131.32,0,0,0,32.25-33.46h0Z"/></g></svg>