<svg id="Layer_1" data-name="Layer 1" xmlns="http://www.w3.org/2000/svg" viewBox="0 0 512 512"><defs><style>.cls-1{fill:#91c35e;}.cls-2{fill:#6c6d6c;}</style></defs><title>icons</title><circle id="_Path_" data-name="&lt;Path&gt;" class="cls-1" cx="256" cy="256" r="230"/><path class="cls-2" d="M399,218.55v85a24,24,0,0,1-48,0v-85A24,24,0,0,1,399,218.55Zm-262-24a24,24,0,0,0-24,24v85a24,24,0,0,0,48,0v-85A24,24,0,0,0,137,194.55ZM208.22,123L193.84,97.1a6.5,6.5,0,0,1,11.37-6.3L220,117.4a98.22,98.22,0,0,1,72.09,0l14.74-26.6a6.5,6.5,0,0,1,11.37,6.3L303.78,123c25.91,14.78,43.18,41.23,43.22,71.4H165C165,164.27,182.31,137.83,208.22,123Zm82.18,30.5a7.6,7.6,0,1,0,7.6-7.6A7.61,7.61,0,0,0,290.4,153.55Zm-84,0a7.6,7.6,0,1,0,7.6-7.6A7.61,7.61,0,0,0,206.4,153.55ZM165,201.65v131.9a22,22,0,0,0,22,22h11v45a24,24,0,0,0,48,0v-45h20v45a24,24,0,0,0,48,0v-45h11a22,22,0,0,0,22-22V201.65H165Z"/></svg>