<svg id="Layer_1" data-name="Layer 1" xmlns="http://www.w3.org/2000/svg" viewBox="0 0 512 512"><defs><style>.cls-1{fill:#406aaf;}.cls-2{fill:#f2f3f3;}</style></defs><title>icons</title><circle id="_Path_" data-name="&lt;Path&gt;" class="cls-1" cx="256" cy="256" r="230"/><g id="_Group_" data-name="&lt;Group&gt;"><path id="_Path_2" data-name="&lt;Path&gt;" class="cls-2" d="M108.09,240.51h59.78l-18.34,31.77H108.09Q108.09,256.4,108.09,240.51Z"/><path id="_Path_3" data-name="&lt;Path&gt;" class="cls-2" d="M206.19,186.1l28.08,16.21-69.8,120.9L134.7,306,206.19,186.1h0Z"/><path id="_Path_4" data-name="&lt;Path&gt;" class="cls-2" d="M131.85,311.4L161,329.15l-41.53,38.08,12.38-55.83h0Z"/><path id="_Path_5" data-name="&lt;Path&gt;" class="cls-2" d="M210,178.43l28.57,16.49s4.55-7.26,8.83-14.27c6.48-15.23-19.51-28.74-29.5-15L210,178.43h0Z"/><path id="_Path_6" data-name="&lt;Path&gt;" class="cls-2" d="M322.68,280.36l28.9-16.69,14,24.33-28.69,16.56-14.26-24.21h0Z"/><path id="_Path_7" data-name="&lt;Path&gt;" class="cls-2" d="M318.84,271.93l27.42-15.83s-52.92-92-79.69-137.78c-9.9-10-32.44,2.9-27.63,16.72,26.42,45.75,79.91,136.9,79.91,136.9h0Z"/><path id="_Path_8" data-name="&lt;Path&gt;" class="cls-2" d="M343,313.32l26.22-15.14c19.56,14.32,18.85,41.41,15.15,62.87-1.1,14.66-8.9-12.62-16.64-15.41-10.37-9-21.82-18-24.73-32.32h0Z"/><path id="_Path_9" data-name="&lt;Path&gt;" class="cls-2" d="M220,241.28h71.66L310,273.11H201.2L220,241.28h0Z"/><path id="_Path_10" data-name="&lt;Path&gt;" class="cls-2" d="M345.67,240.51h58.25v31H364.44Z"/></g></svg>