<svg id="Layer_1" data-name="Layer 1" xmlns="http://www.w3.org/2000/svg" viewBox="0 0 512 512"><defs><style>.cls-1{fill:#5fbd88;}.cls-2{fill:#e6f4ef;}</style></defs><title>icons</title><circle id="_Path_" data-name="&lt;Path&gt;" class="cls-1" cx="256" cy="256" r="230"/><g id="_Group_" data-name="&lt;Group&gt;"><path id="_Compound_Path_" data-name="&lt;Compound Path&gt;" class="cls-2" d="M361.09,219.24c-27-11.5-63.25-18.95-102-21-6.22-.33-12.23-0.51-18-0.56,28.67-35,59.4-58.46,79.56-59.22a17.08,17.08,0,0,1,10.1,2.42c8.72,5.66,11.17,21.85,6.74,44.42a5.67,5.67,0,1,0,11.13,2.19c5.53-28.15,1.49-47.56-11.69-56.12a28.08,28.08,0,0,0-16.7-4.24c-25.36,1-61.14,28.44-93.85,70.73a328.67,328.67,0,0,0-40.09,3.55c-1.5-6.71-2.67-13.21-3.42-19.4-3.11-25.62.84-43.24,10.83-48.34a14.57,14.57,0,0,1,5.65-1.52c8.61-.66,20.53,4.94,33.53,15.72a5.67,5.67,0,1,0,7.24-8.73C224.63,126.3,210.25,120,198.5,120.85a26.07,26.07,0,0,0-10,2.73c-14.7,7.49-20.72,28.73-16.94,59.81,0.78,6.4,2,13.11,3.5,20-40.57,8.14-66.43,24.39-67.5,44.82-0.76,14.48,10.7,28.24,33.13,39.8a5.67,5.67,0,0,0,5.2-10.08c-17.91-9.23-27.49-19.57-27-29.12,0.7-13.33,22-27.05,58.88-34.38a325.52,325.52,0,0,0,13.06,38.3C162,307,149.26,363.85,175.07,380.61a27.68,27.68,0,0,0,15.4,4.33c11.53,0,25.54-5.72,41.39-17a5.67,5.67,0,1,0-6.58-9.24c-19.13,13.63-35.18,18.15-44,12.41-9.4-6.11-11.48-24-5.7-49.15,3.94-17.14,11.2-36.26,21.09-55.89q3.68,8.11,7.8,16.24C222.06,316.88,243.62,347,265.13,367c17.16,16,33.09,24.25,46.19,24.25a26.38,26.38,0,0,0,12.13-2.81c14.14-7.2,20.28-27.3,17.29-56.59-2.79-27.32-13.14-60.67-29.15-93.93a5.67,5.67,0,0,0-10.22,4.92c15.45,32.1,25.42,64.12,28.08,90.16,2.45,23.95-1.62,40.47-11.15,45.33-10,5.09-26.56-2.07-45.44-19.64-20.56-19.14-41.27-48.09-58.31-81.53-4.05-8-7.77-15.93-11.14-23.84,4.19-7.53,8.73-15.1,13.61-22.61s10-14.73,15.14-21.61c1.61,0,3.22-.05,4.86-0.06,6.72,0,13.93.17,21.45,0.56,37.48,2,72.35,9.1,98.18,20.09,23.72,10.09,37,22.31,36.41,33.5-0.5,9.59-11.15,18.9-30,26.2a5.67,5.67,0,1,0,4.1,10.58c23.59-9.15,36.46-21.66,37.22-36.19C405.24,247.3,389.87,231.49,361.09,219.24ZM207.5,224.52c-3.28,5.06-6.44,10.22-9.48,15.43-3.55-9.36-6.54-18.56-9-27.46,8.82-1.33,18.37-2.32,28.62-2.89Q212.5,216.83,207.5,224.52Z"/><circle id="_Path_2" data-name="&lt;Path&gt;" class="cls-2" cx="256.92" cy="258.02" r="17.02"/></g></svg>