<svg id="Layer_1" data-name="Layer 1" xmlns="http://www.w3.org/2000/svg" viewBox="0 0 512 512"><defs><style>.cls-1{fill:#3f4a4c;}.cls-2{fill:#e06e31;}</style></defs><title>icons</title><circle id="_Path_" data-name="&lt;Path&gt;" class="cls-1" cx="256" cy="256" r="230"/><g id="_Group_" data-name="&lt;Group&gt;"><path id="_Path_2" data-name="&lt;Path&gt;" class="cls-2" d="M190.6,244.64a21,21,0,1,0-21,21A21,21,0,0,0,190.6,244.64Z"/><path id="_Path_3" data-name="&lt;Path&gt;" class="cls-2" d="M190.6,305a21,21,0,1,0-21,21A21,21,0,0,0,190.6,305Z"/><path id="_Path_4" data-name="&lt;Path&gt;" class="cls-2" d="M190.6,365.32a21,21,0,1,0-21,21A21,21,0,0,0,190.6,365.32Z"/></g><g id="_Group_2" data-name="&lt;Group&gt;"><path id="_Path_5" data-name="&lt;Path&gt;" class="cls-2" d="M250.72,244.64a21,21,0,1,0-21,21A21,21,0,0,0,250.72,244.64Z"/><path id="_Path_6" data-name="&lt;Path&gt;" class="cls-2" d="M250.72,306.14a21,21,0,1,0-21,21A21,21,0,0,0,250.72,306.14Z"/><circle id="_Path_7" data-name="&lt;Path&gt;" class="cls-2" cx="229.7" cy="365.32" r="21.01"/></g><g id="_Group_3" data-name="&lt;Group&gt;"><path id="_Path_8" data-name="&lt;Path&gt;" class="cls-2" d="M310.83,244.64a21,21,0,1,0-21,21A21,21,0,0,0,310.83,244.64Z"/><path id="_Path_9" data-name="&lt;Path&gt;" class="cls-2" d="M310.83,306.14a21,21,0,1,0-21,21A21,21,0,0,0,310.83,306.14Z"/><path id="_Path_10" data-name="&lt;Path&gt;" class="cls-2" d="M310.83,365.32a21,21,0,1,0-21,21A21,21,0,0,0,310.83,365.32Z"/></g><path id="_Path_11" data-name="&lt;Path&gt;" class="cls-2" d="M370.95,166c0,17.42-14.61,31.53-32.64,31.53H181.2c-18,0-32.63-14.11-32.63-31.53h0c0-17.42,14.62-31.52,32.63-31.52H338.31c18,0,32.64,14.1,32.64,31.52h0Z"/><g id="_Group_4" data-name="&lt;Group&gt;"><path id="_Path_12" data-name="&lt;Path&gt;" class="cls-2" d="M349.92,285.13a21,21,0,0,0-21,21v59.18a21,21,0,0,0,42,0V306.14A21,21,0,0,0,349.92,285.13Z"/><path id="_Path_13" data-name="&lt;Path&gt;" class="cls-2" d="M370.95,244.64a21,21,0,1,0-21,21A21,21,0,0,0,370.95,244.64Z"/></g></svg>