<svg id="Layer_1" data-name="Layer 1" xmlns="http://www.w3.org/2000/svg" viewBox="0 0 512 512"><defs><style>.cls-1{fill:#f59331;}.cls-2{fill:#1c6da1;}</style></defs><title>icons</title><circle id="_Path_" data-name="&lt;Path&gt;" class="cls-1" cx="256" cy="256" r="230"/><g id="_Group_" data-name="&lt;Group&gt;"><path id="_Path_2" data-name="&lt;Path&gt;" class="cls-2" d="M359.5,114.93c-22.34,0-35.67,18-35.67,48.15V348.26c0,30.14,13.31,48.15,35.63,48.15s35.67-18,35.67-48.15v-62h0V163.08C395.12,132.94,381.8,114.93,359.5,114.93Z"/><path id="_Path_3" data-name="&lt;Path&gt;" class="cls-2" d="M297.06,118.84H151v0.08a35.51,35.51,0,0,0,0,71v0.26h74.77v64.75c0,0.53-.06,1-0.06,1.56h0.08c0,0.43.06,0.85,0.06,1.28A68.32,68.32,0,0,1,157.59,326c-0.61,0-1.22-.08-1.84-0.1l-0.2.24c-1-.1-2-0.16-3.06-0.16a35.55,35.55,0,1,0,0,71.11c1.07,0,2.13-.06,3.18-0.16l0.08,0.12c0.61,0,1.22,0,1.85,0,76.81,0,139.44-62.5,139.44-139.32,0-.39,0-0.83,0-1.28h0c0-3,0-11.43,0-22.82,0-.1,0-0.18,0-0.26S297.06,122,297.06,118.84Z"/></g></svg>