<svg id="Layer_1" data-name="Layer 1" xmlns="http://www.w3.org/2000/svg" viewBox="0 0 512 512"><defs><style>.cls-1{fill:#4480be;}.cls-2{fill:#f8f9fa;}.cls-3{fill:#49382e;}</style></defs><title>icons</title><circle id="_Path_" data-name="&lt;Path&gt;" class="cls-1" cx="256" cy="256" r="230"/><path id="_Path_2" data-name="&lt;Path&gt;" class="cls-2" d="M383.55,169.33V151.11a15.93,15.93,0,0,1,0-29.6v-2.27c-3.35-1.34-13.46-11.46-14.8-14.81h-2.27a15.94,15.94,0,0,1-29.62,0H318.63a15.94,15.94,0,0,1-29.61,0H270.81a15.94,15.94,0,0,1-29.62,0H223a15.94,15.94,0,0,1-29.61,0H175.15a15.94,15.94,0,0,1-29.61,0h-2.27c-1.34,3.35-11.45,13.47-14.81,14.81v2.27a15.94,15.94,0,0,1,0,29.62v18.22a15.94,15.94,0,0,1,0,29.61v18.21a15.94,15.94,0,0,1,0,29.62V265a15.95,15.95,0,0,1,0,29.62v18.21a15.95,15.95,0,0,1,0,29.62v18.21a15.94,15.94,0,0,1,0,29.61v2.48c3.35,1.34,13.47,11.46,14.81,14.81h2.27a15.95,15.95,0,0,1,29.62,0h18.22a15.94,15.94,0,0,1,29.61,0h18.22a15.95,15.95,0,0,1,29.62,0H289a15.94,15.94,0,0,1,29.61,0h18.22a15.95,15.95,0,0,1,29.62,0h2.27c1.34-3.35,11.45-13.46,14.81-14.81v-2.48a15.94,15.94,0,0,1,0-29.61V342.45a15.95,15.95,0,0,1,0-29.62V294.62a15.95,15.95,0,0,1,0-29.62V246.78a15.94,15.94,0,0,1,0-29.62V198.94A15.94,15.94,0,0,1,383.55,169.33Z"/><g id="_Group_" data-name="&lt;Group&gt;"><g id="_Group_2" data-name="&lt;Group&gt;"><path id="_Path_3" data-name="&lt;Path&gt;" class="cls-3" d="M263.91,340.33a2,2,0,0,1-1.14,1.54,66.5,66.5,0,0,0-8.65,7.24c-2.86,2.87-5.53,5.91-8.24,8.92a9.89,9.89,0,0,0-2.68,4.39c-0.06.27-.21,0.57,0.11,0.76a0.58,0.58,0,0,0,.67-0.24c1.66-1.5,3.36-3,5-4.53,2.1-2,4.39-3.88,6.55-5.85,2.68-2.43,5.51-4.68,8.16-7.14a0.57,0.57,0,0,1,.53-0.29c-1.94,2.28-3.88,4.5-6,6.58-2.26,2.25-4.35,4.65-6.38,7.09a5.55,5.55,0,0,0-1.68,3.27c0,0.27-.16.62,0.16,0.76a0.65,0.65,0,0,0,.69-0.36c0.73-.76,1.43-1.52,2.15-2.27,2.48-2.61,5.21-4.94,7.82-7.4,3.38-3.17,6.78-6.32,10.13-9.52,2-1.86,3.83-3.81,5.63-5.83,0.13-.14.24-0.36,0.54-0.18a2.82,2.82,0,0,1-.56.89c-1.39,1.62-2.93,3.12-4.32,4.74-1.95,2.29-4,4.44-6,6.69a16,16,0,0,0-2.73,3.66c-0.16.36-.57,0.87-0.12,1.16s0.65-.28.89-0.55c3.11-3.31,6.6-6.21,9.93-9.28a77.82,77.82,0,0,0,8.56-8.82c0.79-1,1.46-2.1,2.32-3a28.37,28.37,0,0,0,5.15-7.81,17.62,17.62,0,0,1,3.89-5.89,17.14,17.14,0,0,0,3.25-3.93,15.1,15.1,0,0,1,1.88-2.49,13.3,13.3,0,0,0,2.21-3.56,3.71,3.71,0,0,0-.1-3.45,16.61,16.61,0,0,0-3.34-3.75,30.65,30.65,0,0,1-4.65-5c-1.22-1.9-2.75-3.61-3.49-5.8a0.68,0.68,0,0,1,.53-1.06c3.77-1.1,7.49-2.33,11.26-3.42,4.32-1.25,8.72-2.11,13.26-1.33a0.85,0.85,0,0,0,1-.17,1.23,1.23,0,0,0-.15-1.3,3.55,3.55,0,0,0-.76-0.74c-0.34-.27-0.72-0.52-1.14-0.82,0.86-.13,1.6-0.26,2.35-0.35,0.53-.05,1,0.06,1,0.76,0,0.19-.11.47,0.15,0.53a0.49,0.49,0,0,0,.43-0.37,3.22,3.22,0,0,0-1.15-4.51c-1.27-.79-2.74-0.89-4.12-1.31a8.23,8.23,0,0,1-2.49-1.08,10.46,10.46,0,0,0-6.32-2.15,15.33,15.33,0,0,1-4.16-.5,35.93,35.93,0,0,1-7.6-3.11,6,6,0,0,1-2.73-2.47,15.4,15.4,0,0,0-1.44-2.23,18.35,18.35,0,0,1-2.84-5.26,64.39,64.39,0,0,1-2.73-11,75.68,75.68,0,0,1-.8-13.1c0.06-3.84-.11-7.69.18-11.53a93.47,93.47,0,0,1,1.54-11.58,28.41,28.41,0,0,0,.65-5.69,11.06,11.06,0,0,0-2.16-6.2,74.55,74.55,0,0,0-10.34-12.6,81,81,0,0,1-6.51-7.38c-1.67-2-3.18-4.11-5-6-1.56-1.57-3.13-3.13-4.69-4.71-2-2.07-4.07-4.13-6.28-6s-4.65-3.8-7.07-5.58a71.2,71.2,0,0,0-7.25-4.67c-2.39-1.35-4.94-2.4-7.43-3.58a4.3,4.3,0,0,0-.86-0.31c-0.64-.15-0.95.15-0.81,0.78a1.27,1.27,0,0,0,1.16,1.22c0.26,0,.84.12,0.53,0.6a0.66,0.66,0,0,0,.08.88,10,10,0,0,0,2.13,2.18c1.69,1.34,3.42,2.65,5.11,4a4.21,4.21,0,0,1,1.18,1.15,0.61,0.61,0,0,1-.59-0.2c-1.28-.78-2.54-1.61-3.85-2.34-3.71-2.07-7.4-4.19-11.24-6a66.57,66.57,0,0,0-8.45-3.52,0.88,0.88,0,0,0-1.12.16,1,1,0,0,0,.14,1.13,14.64,14.64,0,0,0,3,3.63,51.75,51.75,0,0,0,6.52,4.51c2.11,1.28,4.26,2.49,6.28,3.92a2.09,2.09,0,0,1,.78.7,0.7,0.7,0,0,1-.8-0.13c-0.62-.3-1.21-0.65-1.84-0.93-2.78-1.28-5.54-2.58-8.35-3.79a62.41,62.41,0,0,0-10-3.63,6.43,6.43,0,0,0-2-.21,0.65,0.65,0,0,0-.58,1.06,11.28,11.28,0,0,0,1.56,2.34,22.57,22.57,0,0,0,4.93,3.57,74.93,74.93,0,0,0,8.41,4.64,0.57,0.57,0,0,1,.49.51,0.65,0.65,0,0,1-.66,0c-3.54-1.21-7.06-2.48-10.7-3.39a25.07,25.07,0,0,0-6.38-1.07c-1.13,0-1.52.71-.91,1.65a10.67,10.67,0,0,0,2.41,2.74,35.31,35.31,0,0,0,4.92,2.76,8.3,8.3,0,0,1,2.09,1.23,0.57,0.57,0,0,1-.53.09,36.89,36.89,0,0,0-5.57-.91,17.74,17.74,0,0,0-4.72.07c-1,.18-1.18.73-0.62,1.53a11.54,11.54,0,0,0,5.08,4c0.22,0.09.62,0.08,0.58,0.38s-0.44.27-.7,0.34a1.77,1.77,0,0,1-.23,0,1.7,1.7,0,0,0-1.53.86c-0.29.64,0.26,1.08,0.58,1.56,0,0,.07.07,0.1,0.11a15,15,0,0,0,6.36,4.46,1.05,1.05,0,0,1,.84,1.08,2.72,2.72,0,0,0,.54,1.41,15.31,15.31,0,0,0,4.29,4.28,2.81,2.81,0,0,1,1.13,1.48A8.2,8.2,0,0,0,218,195a1.63,1.63,0,0,1,.59,1.11,5.14,5.14,0,0,0,1.6,3.22,2.56,2.56,0,0,1,.88,2.3,5.26,5.26,0,0,0,1.71,4.4,2.28,2.28,0,0,0,1.86.9c0.61-.07.68,0.14,0.58,0.69a3.7,3.7,0,0,0,.28,2.81,1,1,0,0,1,0,1,5,5,0,0,0,0,3.92c0.17,0.53.78,1.17-.17,1.62a0.43,0.43,0,0,0-.11.27,3.59,3.59,0,0,0,.44,2.94A2.19,2.19,0,0,1,226,222a4.06,4.06,0,0,0,.89,3.76c0.26,0.28.16,0.44-.19,0.51a0.74,0.74,0,0,0-.63.6,3.81,3.81,0,0,0,.05,2.4,1.91,1.91,0,0,1,.06,1.46c-0.53,1.65-.77,3.3.48,4.78a0.89,0.89,0,0,1,.17.72,6.51,6.51,0,0,0,.47,3.4,0.33,0.33,0,0,1-.08.35,6.36,6.36,0,0,0-.73,2.62,0.79,0.79,0,0,0,.22.71,1.94,1.94,0,0,1,.4,2c-0.11.47-.15,1-0.22,1.44a2.08,2.08,0,0,0,.64,2,1,1,0,0,1,.35,1,17.11,17.11,0,0,0-.12,2.13,2.6,2.6,0,0,0,1.47,2.7c0.17,0.1.49,0.19,0.39,0.4-0.44.94,0.33,0.53,0.66,0.62,0.15,0,.35-0.07.44,0.15-1.3.66-1.36,0.74-1.23,2.2a11.18,11.18,0,0,1,.13,3.1,2,2,0,0,0,.55,1.82,3.11,3.11,0,0,1,1.18,2.14c0,0.31.28,0.4,0.57,0.25s0.3-.19.56-0.36a1.87,1.87,0,0,0-.08,1.32,2.51,2.51,0,0,1-.52,2.43,3.19,3.19,0,0,0-.77,3.24,1.37,1.37,0,0,1-.86,1.7,8.42,8.42,0,0,0-3.21,2.31,3,3,0,0,1-1.61.93,98.84,98.84,0,0,1-11.5,1.54c-4.61.47-9.19,1.22-13.79,1.73a1,1,0,0,0-1,.71,0.63,0.63,0,0,1-.63.46,4.39,4.39,0,0,0-.6.09c-0.19.05-.45,0.11-0.4,0.37s0.28,0.17.45,0.18h1a0.66,0.66,0,0,1,.67.26c0.16,0.32-.13.45-0.29,0.63a13.46,13.46,0,0,1-3.12,1.89c-1.14.7-2.36,1.26-2.64,2.83a3.37,3.37,0,0,0,.9,3.18c0.26,0.26.38,0.41,0.12,0.75a2.78,2.78,0,0,0,1.38,4.29,4.75,4.75,0,0,0,1.56.36c1.48,0,2.79.63,4.19,0.92,0.5,0.11.49,0.32,0.14,0.66a2.41,2.41,0,0,1-1.36.63,0.51,0.51,0,0,0-.49.42,0.41,0.41,0,0,0,.38.41,4.46,4.46,0,0,0,2.5.5c1.12-.21,2.26-0.36,3.39-0.53,2.09-.32,4.17-0.67,6.27-1,3.39-.45,6.72-1.16,10.06-1.9,3-.67,5.94-1.69,9.09-1.33a1.06,1.06,0,0,1,.91.27,1.18,1.18,0,0,0,1.79.29c0.25-.13.5-0.25,0.76-0.36,0.56-.25,1.7.16,1.56,0.57-0.3.9,0.24,1.86-.26,2.63s-0.65.88,0,1.75a0.84,0.84,0,0,1,.34.94,1,1,0,0,0,.33,1.29,1,1,0,0,1,.31,1.16,1.21,1.21,0,0,0,.38,1.37c0.61,0.6,1.47,1,1.46,2.1a0.82,0.82,0,0,0,.26.37,0.53,0.53,0,0,1,.13.57c-0.41.89,0.08,1.37,0.79,1.79a0.74,0.74,0,0,1,.61.69,1.37,1.37,0,0,0,.82,1.49,0.82,0.82,0,0,1,.42,1,1.1,1.1,0,0,0,.12,1.17c0.8,0.54.62,1.29,0.6,2a0.91,0.91,0,0,0,.07.52c0.55,0.73,1,1.53,1.51,2.29a1.88,1.88,0,0,1,.53,1.25,2.05,2.05,0,0,0,1.24,2.24,0.77,0.77,0,0,1,.41,1,1.8,1.8,0,0,1-.6.95,4.22,4.22,0,0,0-1.19,3,1.17,1.17,0,0,0,.5,1.14c0.8,0.45.42,0.79,0,1.19a5,5,0,0,0-1.81,3.18,3.36,3.36,0,0,1-.81,1.85,4.38,4.38,0,0,0-1.06,2.72,1.07,1.07,0,0,1-.42.86c-0.79.64-1.6,1.27-2.34,2a5.23,5.23,0,0,0-2,3c-0.12.79,0.13,1.08,0.95,1a1.14,1.14,0,0,1,1,0c-0.15.13-.24,0.22-0.34,0.29a16.7,16.7,0,0,0-4.42,4.55,6.93,6.93,0,0,0-.74,2.15c-0.14.62,0.17,0.85,0.79,0.67a6.22,6.22,0,0,0,1.93-.9c0.51-.36,1-0.68,1.57-1-1,1-2,2.1-3.06,3.13a8,8,0,0,0-1.81,3.07,0.76,0.76,0,0,0,.09.86,0.67,0.67,0,0,0,.78-0.05,12.35,12.35,0,0,0,2.46-1.37q6.31-4.37,12.6-8.77a4.38,4.38,0,0,1,1.35-.81,0.63,0.63,0,0,1-.2.29A88.8,88.8,0,0,0,238.88,357a7.5,7.5,0,0,0-1.73,3.36,0.87,0.87,0,0,0,.16.93c0.32,0.26.57-.06,0.8-0.24,0.85-.65,1.7-1.29,2.52-2,1.58-1.33,3.1-2.73,4.7-4,5.43-4.43,11-8.67,16.38-13.15A10.49,10.49,0,0,1,263.91,340.33Z"/><path id="_Path_4" data-name="&lt;Path&gt;" class="cls-3" d="M263.91,340.33a10.66,10.66,0,0,0-2.21,1.59c-5.38,4.48-11,8.73-16.38,13.15-1.6,1.3-3.12,2.7-4.7,4-0.81.69-1.67,1.33-2.52,2-0.23.17-.47,0.5-0.8,0.24a0.87,0.87,0,0,1-.16-0.93,7.47,7.47,0,0,1,1.73-3.36A89,89,0,0,1,250,346.15a0.63,0.63,0,0,0,.2-0.29,4.4,4.4,0,0,0-1.35.81q-6.3,4.38-12.6,8.77a12.42,12.42,0,0,1-2.46,1.37,0.67,0.67,0,0,1-.78.05,0.76,0.76,0,0,1-.09-0.86,7.91,7.91,0,0,1,1.81-3.07c1-1,2-2.08,3.06-3.13-0.53.34-1.07,0.65-1.57,1a6.22,6.22,0,0,1-1.93.9c-0.62.18-.93-0.05-0.79-0.67a7,7,0,0,1,.74-2.15,16.7,16.7,0,0,1,4.42-4.55c0.1-.07.19-0.16,0.34-0.29a1.14,1.14,0,0,0-1,0c-0.81.11-1.07-.17-0.95-1a5.22,5.22,0,0,1,2-3c0.74-.69,1.55-1.32,2.34-2a1.07,1.07,0,0,0,.42-0.86,4.39,4.39,0,0,1,1.06-2.72,3.36,3.36,0,0,0,.81-1.85,5,5,0,0,1,1.81-3.18c0.43-.4.81-0.74,0-1.19a1.18,1.18,0,0,1-.5-1.14,4.23,4.23,0,0,1,1.19-3,1.79,1.79,0,0,0,.6-0.95,0.76,0.76,0,0,0-.41-1,2.06,2.06,0,0,1-1.24-2.24,1.89,1.89,0,0,0-.53-1.25c-0.5-.76-1-1.55-1.51-2.29a0.87,0.87,0,0,1-.07-0.52c0-.74.21-1.49-0.6-2a1.1,1.1,0,0,1-.12-1.17,0.82,0.82,0,0,0-.42-1,1.36,1.36,0,0,1-.82-1.49,0.73,0.73,0,0,0-.61-0.69c-0.71-.41-1.2-0.89-0.79-1.79a0.53,0.53,0,0,0-.13-0.57,0.85,0.85,0,0,1-.26-0.37c0-1.05-.85-1.5-1.46-2.1a1.21,1.21,0,0,1-.38-1.37,1,1,0,0,0-.31-1.16,1,1,0,0,1-.33-1.29,0.84,0.84,0,0,0-.34-0.94c-0.7-.86-0.62-0.85,0-1.74,2.7-4.21-4.36-3.57-6.51-3.47a44.45,44.45,0,0,0-7.34,1.4c-3.33.74-6.67,1.45-10.06,1.9-2.09.28-4.18,0.63-6.27,1-1.13.17-2.27,0.32-3.39,0.53a4.48,4.48,0,0,1-2.5-.5,0.41,0.41,0,0,1-.38-0.41,0.52,0.52,0,0,1,.49-0.42,2.41,2.41,0,0,0,1.36-.63c0.35-.34.36-0.55-0.14-0.66-1.4-.29-2.71-0.93-4.19-0.92a4.63,4.63,0,0,1-1.56-.36,2.78,2.78,0,0,1-1.38-4.29c0.26-.34.13-0.49-0.12-0.75a3.37,3.37,0,0,1-.9-3.18c0.28-1.57,1.5-2.12,2.64-2.83a13.51,13.51,0,0,0,3.12-1.89c0.17-.18.46-0.31,0.29-0.63A0.66,0.66,0,0,0,199,282h-1c-0.17,0-.41,0-0.45-0.18s0.21-.32.4-0.37a4.39,4.39,0,0,1,.6-0.09,0.63,0.63,0,0,0,.63-0.46,1,1,0,0,1,1-.71c4.61-.51,9.18-1.26,13.79-1.73a98.84,98.84,0,0,0,11.5-1.54,3,3,0,0,0,1.61-.93,8.49,8.49,0,0,1,3.21-2.31,1.37,1.37,0,0,0,.86-1.7,3.18,3.18,0,0,1,.77-3.24,2.51,2.51,0,0,0,.52-2.43,1.88,1.88,0,0,1,.08-1.32c-0.26.17-.4,0.27-0.56,0.36s-0.58.06-.57-0.25a3.1,3.1,0,0,0-1.18-2.14,2,2,0,0,1-.55-1.82,11.26,11.26,0,0,0-.13-3.1c-0.13-1.46-.07-1.55,1.23-2.2-0.09-.23-0.29-0.11-0.44-0.15-0.32-.09-1.1.32-0.66-0.62,0.1-.21-0.23-0.3-0.39-0.4a2.6,2.6,0,0,1-1.47-2.7,17.08,17.08,0,0,1,.12-2.13,1,1,0,0,0-.35-1,2.08,2.08,0,0,1-.64-2c0.07-.48.1-1,0.22-1.44a1.94,1.94,0,0,0-.4-2,0.79,0.79,0,0,1-.22-0.71,6.32,6.32,0,0,1,.73-2.62,0.33,0.33,0,0,0,.08-0.35,6.54,6.54,0,0,1-.47-3.4,0.89,0.89,0,0,0-.17-0.72c-1.26-1.48-1-3.13-.48-4.78a1.92,1.92,0,0,0-.06-1.46,3.8,3.8,0,0,1-.05-2.4,0.75,0.75,0,0,1,.63-0.6c0.35-.07.45-0.23,0.19-0.51A4.06,4.06,0,0,1,226,222a2.19,2.19,0,0,0-.34-1.92,3.58,3.58,0,0,1-.44-2.94,0.45,0.45,0,0,1,.11-0.27c0.94-.45.34-1.09,0.17-1.62a5,5,0,0,1,0-3.92,1,1,0,0,0,0-1,3.71,3.71,0,0,1-.28-2.81c0.1-.55,0-0.76-0.58-0.69a2.28,2.28,0,0,1-1.86-.9,5.26,5.26,0,0,1-1.71-4.4,2.56,2.56,0,0,0-.88-2.3,5.15,5.15,0,0,1-1.6-3.22A1.63,1.63,0,0,0,218,195a8.21,8.21,0,0,1-2.56-3.91,2.82,2.82,0,0,0-1.13-1.48,15.34,15.34,0,0,1-4.29-4.28,2.72,2.72,0,0,1-.54-1.41,1.05,1.05,0,0,0-.84-1.08,15,15,0,0,1-6.36-4.46l-0.1-.11c-0.32-.48-0.87-0.92-0.58-1.56a1.7,1.7,0,0,1,1.53-.86,1.73,1.73,0,0,0,.23,0c0.26-.07.66,0,0.7-0.34s-0.36-.29-0.58-0.38a11.54,11.54,0,0,1-5.08-4c-0.56-.8-0.37-1.34.62-1.53a17.63,17.63,0,0,1,4.72-.07,36.63,36.63,0,0,1,5.57.91,0.56,0.56,0,0,0,.53-0.09,8.37,8.37,0,0,0-2.09-1.23,35.06,35.06,0,0,1-4.92-2.76,10.8,10.8,0,0,1-2.41-2.74c-0.62-.94-0.22-1.64.91-1.65a25.07,25.07,0,0,1,6.38,1.07c3.64,0.91,7.16,2.18,10.7,3.39a0.65,0.65,0,0,0,.66,0,0.57,0.57,0,0,0-.49-0.51,74.11,74.11,0,0,1-8.41-4.64,22.54,22.54,0,0,1-4.93-3.57,11.28,11.28,0,0,1-1.56-2.34,0.65,0.65,0,0,1,.59-1.06,6.47,6.47,0,0,1,2,.21,61.93,61.93,0,0,1,10,3.63c2.81,1.21,5.57,2.51,8.35,3.79,0.62,0.29,1.22.64,1.84,0.93a0.7,0.7,0,0,0,.8.13,2,2,0,0,0-.78-0.7c-2-1.43-4.17-2.65-6.28-3.92a51.75,51.75,0,0,1-6.52-4.51,14.59,14.59,0,0,1-3-3.63,1,1,0,0,1-.14-1.13,0.88,0.88,0,0,1,1.12-.16,66.57,66.57,0,0,1,8.45,3.52c3.85,1.83,7.53,4,11.24,6,1.31,0.73,2.57,1.56,3.85,2.34a0.61,0.61,0,0,0,.59.2,4.21,4.21,0,0,0-1.18-1.15c-1.69-1.36-3.41-2.66-5.11-4-0.55-.44-5.29-6.15-3.09-5.65a4.25,4.25,0,0,1,.86.31c2.48,1.18,5,2.24,7.43,3.58a70.93,70.93,0,0,1,7.25,4.67c2.42,1.78,4.78,3.63,7.07,5.58s4.25,4,6.28,6c1.55,1.58,3.13,3.13,4.69,4.71,1.83,1.85,3.35,4,5,6a81,81,0,0,0,6.51,7.38A74.79,74.79,0,0,1,281.8,201a11.06,11.06,0,0,1,2.16,6.2,28.23,28.23,0,0,1-.65,5.69,93.47,93.47,0,0,0-1.54,11.58c-0.29,3.84-.11,7.69-0.18,11.53a75.68,75.68,0,0,0,.8,13.1,64.11,64.11,0,0,0,2.73,11,18.42,18.42,0,0,0,2.84,5.26,15.4,15.4,0,0,1,1.44,2.23,5.93,5.93,0,0,0,2.73,2.47,35.93,35.93,0,0,0,7.6,3.11,15.22,15.22,0,0,0,4.16.5,10.47,10.47,0,0,1,6.32,2.15,8.24,8.24,0,0,0,2.49,1.08c1.38,0.42,2.86.51,4.12,1.31a3.22,3.22,0,0,1,1.15,4.51,0.49,0.49,0,0,1-.43.37c-0.26-.06-0.15-0.34-0.15-0.53,0-.69-0.44-0.81-1-0.76-0.75.08-1.5,0.22-2.35,0.35,0.42,0.3.79,0.55,1.14,0.82a3.67,3.67,0,0,1,.76.74,1.25,1.25,0,0,1,.15,1.3,0.84,0.84,0,0,1-1,.17c-4.54-.78-8.94.08-13.26,1.33-3.77,1.09-7.49,2.32-11.26,3.42A0.68,0.68,0,0,0,290,291c0.74,2.2,2.27,3.91,3.49,5.8a30.55,30.55,0,0,0,4.65,5,16.62,16.62,0,0,1,3.34,3.75,3.71,3.71,0,0,1,.1,3.45,13.24,13.24,0,0,1-2.21,3.56,15.1,15.1,0,0,0-1.88,2.49,17.27,17.27,0,0,1-3.25,3.93,17.54,17.54,0,0,0-3.89,5.89,28.34,28.34,0,0,1-5.15,7.81c-0.86.93-1.53,2-2.32,3a77.62,77.62,0,0,1-8.56,8.82c-3.34,3.07-6.83,6-9.93,9.28-0.25.26-.57,0.77-0.89,0.55s0-.8.12-1.16a15.86,15.86,0,0,1,2.73-3.66c2-2.25,4.08-4.41,6-6.69,1.39-1.63,2.93-3.12,4.32-4.74a2.85,2.85,0,0,0,.56-0.89c-0.31-.18-0.42,0-0.54.18-1.81,2-3.67,4-5.63,5.83-3.35,3.2-6.76,6.35-10.13,9.52-2.62,2.46-5.35,4.8-7.82,7.4-0.72.76-1.43,1.52-2.15,2.27a0.65,0.65,0,0,1-.69.36c-0.32-.14-0.18-0.49-0.16-0.76a5.55,5.55,0,0,1,1.68-3.27c2-2.44,4.12-4.84,6.38-7.09,2.08-2.08,4-4.3,6-6.58a0.57,0.57,0,0,0-.53.29c-2.65,2.46-5.48,4.71-8.16,7.14-2.17,2-4.45,3.81-6.55,5.85-1.61,1.56-3.31,3-5,4.53a0.59,0.59,0,0,1-.67.24c-0.32-.18-0.17-0.49-0.11-0.76a9.84,9.84,0,0,1,2.68-4.39c2.7-3,5.37-6.05,8.24-8.92a66.49,66.49,0,0,1,8.65-7.24A2,2,0,0,0,263.91,340.33Z"/></g></g></svg>