<svg id="Layer_1" data-name="Layer 1" xmlns="http://www.w3.org/2000/svg" viewBox="0 0 512 512"><defs><style>.cls-1{fill:#d1d3d4;}.cls-2{fill:#3fb34f;}</style></defs><title>icons</title><circle id="_Path_" data-name="&lt;Path&gt;" class="cls-1" cx="256" cy="256" r="230"/><g id="_Group_" data-name="&lt;Group&gt;"><path id="_Path_2" data-name="&lt;Path&gt;" class="cls-2" d="M201,269.29l13.19,8.07c2.23,0,3.35-.92,3.35-2.76a12.38,12.38,0,0,0-1.57-4.92l-29.15-54.75-64.6,1.58q-4.33.2-4.33,4.53,0,1,2.76,2.76l13.39,8.07-14.18,22.05q-5.9,9.46-5.91,15.57,0,5.53,3.94,12.41l43.92,76.61a65.15,65.15,0,0,1-1.57-13.79q0-11.6,7.28-22.84Z"/><path id="_Path_3" data-name="&lt;Path&gt;" class="cls-2" d="M254.21,168.46q-20.3-46.28-43.13-46.29-13.79,0-18.51,7.68L158.3,184.61l59.68,40Z"/><path id="_Path_4" data-name="&lt;Path&gt;" class="cls-2" d="M175.43,328a44.55,44.55,0,0,0-5.12,20.48q0,28.18,18.12,28.16h69.92V304H191Q178.58,321.67,175.43,328Z"/><path id="_Path_5" data-name="&lt;Path&gt;" class="cls-2" d="M363.52,158.8a11.37,11.37,0,0,0,1.57-5.71q0-3.55-2.36-3.55c0.25,0-.79.39-3.15,1.18l-14.18,6.5-13-25.8q-8.68-17.33-34.67-17.33H216.8q14.77,4.54,20.08,8.86,12.41,9.85,25.41,37l16.15,33.88-12,5.71a3.1,3.1,0,0,0-1.77,3.15c0,2,1.24,3.1,3.74,3.35l64,5.12Z"/><path id="_Path_6" data-name="&lt;Path&gt;" class="cls-2" d="M387,298.84Q377.5,302,360,302H309.55V291.54q0-6.1-3-6.11a3.44,3.44,0,0,0-3.15,1.58l-31.9,55.34,33.09,50.82c2.5,3.81,4.66,5.32,6.5,4.52,1.83-.52,2.76-1.5,2.76-2.95V377.41h28q15.36,0,21.66-11.62l45.3-82.32Q398.77,294.9,387,298.84Z"/><path id="_Path_7" data-name="&lt;Path&gt;" class="cls-2" d="M343.82,291.54H374q10.82,0,22.45-9.45,12.41-9.84,12.41-20.88a17.77,17.77,0,0,0-3.35-10l-35.84-54.75L308,232.27Z"/></g></svg>