<svg id="Layer_1" data-name="Layer 1" xmlns="http://www.w3.org/2000/svg" viewBox="0 0 512 512"><defs><style>.cls-1{fill:#5fbee9;}.cls-2{fill:#939698;}.cls-3{fill:#e5e7e9;}</style></defs><title>icons</title><circle id="_Path_" data-name="&lt;Path&gt;" class="cls-1" cx="256" cy="256" r="230"/><g id="_Group_" data-name="&lt;Group&gt;"><path id="_Path_2" data-name="&lt;Path&gt;" class="cls-2" d="M246.94,303.42l-0.79-1.16L210.91,291.9l-1.32.53a1,1,0,0,0-.58.63L172.66,410.94c-2.86,9.72,1.17,19.5,9,21.79l13,3.81c7.8,2.29,16.48-3.75,19.34-13.48l33.15-118.81A1,1,0,0,0,246.94,303.42Z"/><path id="_Path_3" data-name="&lt;Path&gt;" class="cls-3" d="M359.71,98l-16.93-5c-5.11-1.5-8.82.11-10.61,4.48A11,11,0,0,1,323,99.31c-2.89-.85-5.2-3.18-6.5-6.56a1,1,0,0,0-.65-0.6l-9.79-2.93a2.83,2.83,0,0,0-.19-1.28c-0.46-1.15-1.65-1.95-3.86-2.59l-20.78-6.11c-2.21-.65-3.64-0.62-4.65.1a2.91,2.91,0,0,0-.85,1C271.18,79,267.82,78.11,267,78,245.34,72.69,227.9,74.37,215.1,83c-17.81,12.08-20,33.08-20.06,34a1,1,0,0,0,.71,1.05l3.68,1.08a1,1,0,0,0,1.19-.55c8.56-18.89,36.34-15.79,52.47-12.14,0,0.23,0,.49,0,0.69,0,1.23,0,2.21.94,2.49h0c1.44,0.34,2.74.68,3.88,1l0,0.08,1.89,0.54L253.88,145a1,1,0,0,0,.7,1.13l2.64,0.78L214,287.23l32.22,9.47,39.49-141.45,2.62,0.77a1,1,0,0,0,1.21-.57l13.38-31.8,2.86,0.83a1,1,0,0,0,.75-0.09c2.39-1.31,6.57-1.32,9.09-.58s6.1,3,7.41,5.16c-0.66,4.71,1.66,8.36,6.38,9.75l16.93,5c1.82,0.54,3.69-1.48,6.06-6.52a108.6,108.6,0,0,0,5.43-14.89C359.81,115.41,364,99.31,359.71,98Z"/></g></svg>