<svg id="Layer_1" data-name="Layer 1" xmlns="http://www.w3.org/2000/svg" viewBox="0 0 512 512"><defs><style>.cls-1{fill:#5fbee9;}.cls-2{fill:#939698;}.cls-3{fill:#e5e7e9;}.cls-4{fill:#dd4c8a;}</style></defs><title>icons</title><circle id="_Path_" data-name="&lt;Path&gt;" class="cls-1" cx="256" cy="256" r="230"/><g id="_Group_" data-name="&lt;Group&gt;"><path id="_Path_2" data-name="&lt;Path&gt;" class="cls-2" d="M246.94,303.42l-0.79-1.16L210.91,291.9l-1.32.53a1,1,0,0,0-.58.63L172.66,410.94c-2.86,9.72,1.17,19.5,9,21.79l13,3.81c7.8,2.29,16.48-3.75,19.34-13.48l33.15-118.81A1,1,0,0,0,246.94,303.42Z"/><path id="_Path_3" data-name="&lt;Path&gt;" class="cls-3" d="M359.71,98l-16.93-5c-5.11-1.5-8.82.11-10.61,4.48A11,11,0,0,1,323,99.31c-2.89-.85-5.2-3.18-6.5-6.56a1,1,0,0,0-.65-0.6l-9.79-2.93a2.83,2.83,0,0,0-.19-1.28c-0.46-1.15-1.65-1.95-3.86-2.59l-20.78-6.11c-2.21-.65-3.64-0.62-4.65.1a2.91,2.91,0,0,0-.85,1C271.18,79,267.82,78.11,267,78,245.34,72.69,227.9,74.37,215.1,83c-17.81,12.08-20,33.08-20.06,34a1,1,0,0,0,.71,1.05l3.68,1.08a1,1,0,0,0,1.19-.55c8.56-18.89,36.34-15.79,52.47-12.14,0,0.23,0,.49,0,0.69,0,1.23,0,2.21.94,2.49h0c1.44,0.34,2.74.68,3.88,1l0,0.08,1.89,0.54L253.88,145a1,1,0,0,0,.7,1.13l2.64,0.78L214,287.23l32.22,9.47,39.49-141.45,2.62,0.77a1,1,0,0,0,1.21-.57l13.38-31.8,2.86,0.83a1,1,0,0,0,.75-0.09c2.39-1.31,6.57-1.32,9.09-.58s6.1,3,7.41,5.16c-0.66,4.71,1.66,8.36,6.38,9.75l16.93,5c1.82,0.54,3.69-1.48,6.06-6.52a108.6,108.6,0,0,0,5.43-14.89C359.81,115.41,364,99.31,359.71,98Z"/></g><path id="_Path_4" data-name="&lt;Path&gt;" class="cls-4" d="M256,26a230.51,230.51,0,0,0-54.8,6.59L29.29,217.09a231.31,231.31,0,0,0,6.85,106.63L308,31.91A230.7,230.7,0,0,0,256,26Z"/><path class="cls-3" d="M79.17,184.91q1.13-1.21,2.45-2.59t2.73-2.62a29.37,29.37,0,0,1,2.77-2.19,8.86,8.86,0,0,1,2.68-1.3,13.42,13.42,0,0,1,6-.3,11.61,11.61,0,0,1,6,3.17,12.56,12.56,0,0,1,3.85,6.28,11.67,11.67,0,0,1-.6,7.15l0.11,0.1a11.84,11.84,0,0,1,8.11-2.39,12.94,12.94,0,0,1,7.63,3.64,15.34,15.34,0,0,1,3.32,4.46,13.75,13.75,0,0,1,1.42,5.4,14.91,14.91,0,0,1-.91,5.84,16.81,16.81,0,0,1-3.66,5.79l-16.91,18.2-37.66-35Zm17.47,13.67q4-4.27,4.21-7.54T98.07,185a9.08,9.08,0,0,0-3.75-2.31,6.14,6.14,0,0,0-3.41.08,9.38,9.38,0,0,0-3.2,1.8,33.54,33.54,0,0,0-3.05,2.91l-9.31,10,12,11.12Zm19.6,13.49a9.82,9.82,0,0,0,3-6.86,8.92,8.92,0,0,0-3.22-6.48,8.41,8.41,0,0,0-3.7-2.16,7.28,7.28,0,0,0-3.62,0,10.45,10.45,0,0,0-3.43,1.68,21.81,21.81,0,0,0-3.13,2.79L91.55,212.53l13,12.1Z"/><path class="cls-3" d="M124.21,136.44l4.22,3.92-19.5,21,12,11.13,18.18-19.57,4.22,3.92L125.12,176.4l13,12.1,19.65-21.15,4.22,3.92-24.3,26.16-37.67-35Z"/><path class="cls-3" d="M130.48,138.14l-4.22-3.92,28-30.12,4.22,3.92L146.8,120.58l33.44,31.07-4.65,5-33.45-31.07Z"/><path class="cls-3" d="M168.26,89l51.34,20.27-5.15,5.54-15.16-6.42-14.8,15.93,7.42,14.76-4.75,5.12-24-49.65Zm25.34,17.05L170.2,96l-0.1.11,11.63,22.7Z"/></svg>